HIERARCHY
ROOT Hips
{
	OFFSET 0.000000 0.000000 0.000000
	CHANNELS 6 Xposition Yposition Zposition Zrotation Yrotation Xrotation 
	JOINT LHipJoint
	{
		OFFSET 0.000000 0.000000 0.000000
		CHANNELS 3 Zrotation Yrotation Xrotation
		JOINT LeftUpLeg
		{
			OFFSET 1.363060 -1.794630 0.839290
			CHANNELS 3 Zrotation Yrotation Xrotation
			JOINT LeftLeg
			{
				OFFSET 2.448110 -6.726130 0.000000
				CHANNELS 3 Zrotation Yrotation Xrotation
				JOINT LeftFoot
				{
					OFFSET 2.562200 -7.039590 0.000000
					CHANNELS 3 Zrotation Yrotation Xrotation
					JOINT LeftToeBase
					{
						OFFSET 0.157640 -0.433110 2.322550
						CHANNELS 3 Zrotation Yrotation Xrotation
						End Site
						{
							OFFSET 0.000000 0.000000 0.000000
						}
					}
				}
			}
		}
	}
	JOINT RHipJoint
	{
		OFFSET 0.000000 0.000000 0.000000
		CHANNELS 3 Zrotation Yrotation Xrotation
		JOINT RightUpLeg
		{
			OFFSET -1.305520 -1.794630 0.839290
			CHANNELS 3 Zrotation Yrotation Xrotation
			JOINT RightLeg
			{
				OFFSET -2.542530 -6.985550 0.000000
				CHANNELS 3 Zrotation Yrotation Xrotation
				JOINT RightFoot
				{
					OFFSET -2.568260 -7.056230 0.000000
					CHANNELS 3 Zrotation Yrotation Xrotation
					JOINT RightToeBase
					{
						OFFSET -0.164730 -0.452590 2.363150
						CHANNELS 3 Zrotation Yrotation Xrotation
						End Site
						{
							OFFSET 0.000000 0.000000 0.000000
						}
					}
				}
			}
		}
	}
	JOINT LowerBack
	{
		OFFSET 0.000000 0.000000 0.000000
		CHANNELS 3 Zrotation Yrotation Xrotation
		JOINT Spine
		{
			OFFSET 0.028270 2.035590 -0.193380
			CHANNELS 3 Zrotation Yrotation Xrotation
			JOINT Spine1
			{
				OFFSET 0.056720 2.048850 -0.042750
				CHANNELS 3 Zrotation Yrotation Xrotation
				JOINT Neck
				{
					OFFSET 0.000000 0.000000 0.000000
					CHANNELS 3 Zrotation Yrotation Xrotation
					JOINT Neck1
					{
						OFFSET -0.054170 1.746240 0.172020
						CHANNELS 3 Zrotation Yrotation Xrotation
						JOINT Head
						{
							OFFSET 0.104070 1.761360 -0.123970
							CHANNELS 3 Zrotation Yrotation Xrotation
							End Site
							{
								OFFSET 0.000000 0.000000 0.000000
							}
						}
					}
				}
				JOINT LeftShoulder
				{
					OFFSET 0.000000 0.000000 0.000000
					CHANNELS 3 Zrotation Yrotation Xrotation
					JOINT LeftArm
					{
						OFFSET 3.362410 1.200890 -0.311210
						CHANNELS 3 Zrotation Yrotation Xrotation
						JOINT LeftForeArm
						{
							OFFSET 4.983000 -0.000000 -0.000000
							CHANNELS 3 Zrotation Yrotation Xrotation
							JOINT LeftHand
							{
								OFFSET 3.483560 -0.000000 -0.000000
								CHANNELS 3 Zrotation Yrotation Xrotation
								JOINT LeftFingerBase
								{
									OFFSET 0.000000 0.000000 0.000000
									CHANNELS 3 Zrotation Yrotation Xrotation
									JOINT LeftHandIndex1
									{
										OFFSET 0.715260 -0.000000 -0.000000
										CHANNELS 3 Zrotation Yrotation Xrotation
										End Site
										{
											OFFSET 0.000000 0.000000 0.000000
										}
									}
								}
								JOINT LThumb
								{
									OFFSET 0.000000 0.000000 0.000000
									CHANNELS 3 Zrotation Yrotation Xrotation
									End Site
									{
										OFFSET 0.000000 0.000000 0.000000
									}
								}
							}
						}
					}
				}
				JOINT RightShoulder
				{
					OFFSET 0.000000 0.000000 0.000000
					CHANNELS 3 Zrotation Yrotation Xrotation
					JOINT RightArm
					{
						OFFSET -3.136600 1.374050 -0.404650
						CHANNELS 3 Zrotation Yrotation Xrotation
						JOINT RightForeArm
						{
							OFFSET -5.241900 -0.000000 -0.000000
							CHANNELS 3 Zrotation Yrotation Xrotation
							JOINT RightHand
							{
								OFFSET -3.444170 -0.000000 -0.000000
								CHANNELS 3 Zrotation Yrotation Xrotation
								JOINT RightFingerBase
								{
									OFFSET 0.000000 0.000000 0.000000
									CHANNELS 3 Zrotation Yrotation Xrotation
									JOINT RightHandIndex1
									{
										OFFSET -0.622530 -0.000000 -0.000000
										CHANNELS 3 Zrotation Yrotation Xrotation
										End Site
										{
											OFFSET 0.000000 0.000000 0.000000
										}
									}
								}
								JOINT RThumb
								{
									OFFSET 0.000000 0.000000 0.000000
									CHANNELS 3 Zrotation Yrotation Xrotation
									End Site
									{
										OFFSET 0.000000 0.000000 0.000000
									}
								}
							}
						}
					}
				}
			}
		}
	}
}
MOTION
Frames: 11
Frame Time: 0.008333
3.229538 16.522475 0.566428 11.740423 64.331912 27.819521 -9.534150 2.063780 0.852202 -11.838181 -1.065014 -21.092387 -2.230611 1.105020 35.004135 2.063971 8.498819 -19.926720 -2.241800 -0.000000 -44.180700 11.162731 0.591054 0.106607 7.399475 1.531925 -42.192699 -1.191204 -4.417504 70.871866 -3.206213 -13.938401 -20.411145 2.712400 -0.000000 -22.471100 -2.049889 -3.404980 -0.609663 -0.668692 -3.249589 -3.174754 -6.183529 -3.167504 -1.512470 9.901692 -13.653297 -8.170898 -3.310812 -0.246290 -0.152152 0.000000 0.000000 0.000000 4.569079 6.377380 -0.475886 -74.071534 4.295709 28.993586 -179.434100 -71.124772 179.957468 5.436970 -5.198038 -0.279733 -0.115084 0.655455 -0.000000 0.000000 0.000000 0.000000 0.000000 0.000000 0.000000 9.905775 -8.633856 -0.607924 74.291397 -4.383225 35.180553 179.603074 75.397456 179.983627 -1.821006 9.191621 -0.154033 -0.005054 -0.632872 0.000000 0.000000 0.000000 0.000000 0.000000 0.000000 0.000000 
3.434373 16.635785 0.662876 11.144772 63.753964 27.186177 -9.608031 2.232349 0.871124 -11.577620 -0.497880 -19.350202 -2.178860 0.989499 32.855106 1.908669 8.417337 -17.545620 -1.790900 0.000000 -46.820299 10.968943 0.564413 0.178812 8.039749 1.259280 -42.445585 -0.929138 -4.263047 68.061820 -3.103041 -13.146396 -19.659920 2.385300 0.000000 -25.010701 -1.769218 -3.520865 -0.741044 -0.574361 -3.386363 -3.180543 -6.052861 -3.304100 -1.425145 9.811999 -13.997920 -8.295713 -3.286024 -0.243856 -0.177905 0.000000 0.000000 0.000000 4.993578 6.446479 -0.557817 -74.383964 4.422667 29.079628 -179.412611 -69.926256 179.958531 5.168423 -5.261027 -0.269097 -0.106360 0.670903 -0.000000 0.000000 0.000000 0.000000 0.000000 0.000000 0.000000 9.629433 -9.008058 -0.647726 73.659824 -4.866886 35.620864 179.565295 74.523827 179.985861 -1.466958 9.292918 -0.124168 -0.013819 -0.638057 -0.000000 0.000000 0.000000 0.000000 0.000000 0.000000 0.000000 
3.638343 16.754247 0.763790 10.585671 63.166450 26.566351 -9.690712 2.411718 0.866140 -11.302954 0.173663 -17.637987 -2.113459 0.895603 30.695442 1.734973 8.279052 -14.791977 -1.281200 -0.000000 -49.963300 10.774120 0.511667 0.244350 8.706402 0.969066 -42.516319 -0.652636 -4.093424 64.948471 -2.975932 -12.269862 -18.732510 2.023699 -0.000000 -27.711501 -1.498035 -3.621142 -0.844277 -0.485519 -3.506350 -3.183535 -5.931979 -3.423944 -1.341340 9.726125 -14.318246 -8.415568 -3.259768 -0.241262 -0.203218 0.000000 0.000000 0.000000 5.334972 6.552479 -0.626486 -74.572090 4.501210 29.253585 -179.390243 -68.842856 179.959539 4.941997 -5.304368 -0.259465 -0.099619 0.684313 -0.000000 0.000000 0.000000 0.000000 0.000000 0.000000 0.000000 9.372974 -9.351876 -0.694876 73.100459 -5.350374 35.957022 179.536557 73.790046 179.987446 -1.216930 9.302879 -0.102099 -0.020351 -0.639890 0.000000 0.000000 0.000000 0.000000 0.000000 0.000000 0.000000 
3.841438 16.876203 0.868397 10.045858 62.575376 25.950391 -9.785875 2.600823 0.837169 -11.002000 0.957030 -15.992238 -2.036052 0.827840 28.569635 1.549088 8.071369 -11.681949 -0.732000 0.000000 -53.490000 10.576780 0.431866 0.308337 9.406002 0.678848 -42.405894 -0.360844 -3.906669 61.541402 -2.825631 -11.316047 -17.665188 1.647600 -0.000000 -30.353200 -1.224696 -3.703682 -0.924338 -0.399815 -3.608272 -3.185250 -5.819217 -3.525913 -1.263120 9.634179 -14.620401 -8.525842 -3.229765 -0.238399 -0.226605 0.000000 0.000000 0.000000 5.597296 6.674144 -0.684875 -74.659152 4.549445 29.495528 -179.368347 -67.882124 179.960556 4.741789 -5.334392 -0.250341 -0.094069 0.695749 -0.000000 0.000000 0.000000 0.000000 0.000000 0.000000 0.000000 9.115080 -9.673442 -0.747021 72.626110 -5.833427 36.195429 179.517753 73.204388 179.988398 -1.070930 9.230398 -0.088324 -0.024459 -0.638269 -0.000000 0.000000 0.000000 0.000000 0.000000 0.000000 0.000000 
4.043396 16.999886 0.975774 9.509720 61.983535 25.319586 -9.895491 2.797304 0.778812 -10.664398 1.862195 -14.426925 -1.949751 0.789579 26.518113 1.359331 7.778786 -8.254095 -0.172700 -0.000000 -57.199000 10.376912 0.325714 0.371556 10.139150 0.405712 -42.098464 -0.052534 -3.700532 57.853409 -2.651159 -10.287945 -16.490049 1.274700 -0.000000 -32.794900 -0.940328 -3.766330 -0.973401 -0.315434 -3.690253 -3.183869 -5.712847 -3.607913 -1.188834 9.529077 -14.901202 -8.625539 -3.194238 -0.235102 -0.247975 0.000000 0.000000 0.000000 5.793608 6.820139 -0.733191 -74.673798 4.549392 29.802556 -179.345511 -67.056044 179.961636 4.559063 -5.345610 -0.241333 -0.089546 0.705096 -0.000000 0.000000 0.000000 0.000000 0.000000 0.000000 0.000000 8.837693 -9.969826 -0.804454 72.246646 -6.320769 36.333910 179.509841 72.754837 179.988778 -1.012235 9.094249 -0.081847 -0.026719 -0.633617 0.000000 0.000000 0.000000 0.000000 0.000000 0.000000 0.000000 
4.244262 17.123264 1.085192 8.968294 61.398535 24.676024 -10.021168 2.997360 0.692790 -10.281857 2.881189 -12.981652 -1.857518 0.782132 24.603056 1.176322 7.385225 -4.577271 0.357100 -0.000000 -60.826000 10.173586 0.195402 0.441922 10.902531 0.174207 -41.605371 0.272251 -3.471530 53.907166 -2.453024 -9.196210 -15.231230 0.919600 -0.000001 -34.977400 -0.637044 -3.809558 -1.000324 -0.230003 -3.753438 -3.180796 -5.609292 -3.671303 -1.117601 9.402932 -15.166996 -8.715349 -3.150575 -0.231169 -0.267332 0.000000 0.000000 0.000000 5.941056 6.980260 -0.774055 -74.650377 4.515399 30.155931 -179.323313 -66.357767 179.962847 4.378097 -5.340479 -0.231644 -0.085174 0.712493 -0.000000 0.000000 0.000000 0.000000 0.000000 0.000000 0.000000 8.516960 -10.248292 -0.864743 71.967748 -6.808870 36.384411 179.511853 72.423652 179.988720 -1.017768 8.921636 -0.080666 -0.027742 -0.626728 0.000000 0.000000 0.000000 0.000000 0.000000 0.000000 0.000000 
4.444070 17.244298 1.196031 8.418724 60.826956 24.026517 -10.162407 3.195667 0.580394 -9.851642 3.999013 -11.689051 -1.762557 0.804204 22.888127 1.011547 6.877431 -0.745903 0.812301 0.000000 -64.087000 9.967056 0.045412 0.527542 11.685394 0.011415 -40.939560 0.612389 -3.215585 49.732950 -2.233300 -8.060618 -13.908996 0.595100 -0.000000 -36.906300 -0.311307 -3.834774 -1.012670 -0.141849 -3.799574 -3.176900 -5.505020 -3.717994 -1.047678 9.250804 -15.422452 -8.797987 -3.096769 -0.226413 -0.285327 0.000000 0.000000 0.000000 6.059826 7.150523 -0.809320 -74.622212 4.455519 30.539894 -179.302895 -65.774492 179.964240 4.186408 -5.318842 -0.220681 -0.080240 0.718094 -0.000000 0.000000 0.000000 0.000000 0.000000 0.000000 0.000000 8.134007 -10.513707 -0.925661 71.791050 -7.294162 36.359005 179.522291 72.185126 179.988354 -1.059949 8.743991 -0.082489 -0.028338 -0.618672 0.000000 0.000000 0.000000 0.000000 0.000000 0.000000 0.000000 
4.642892 17.360862 1.308100 7.880098 60.277411 23.407551 -10.314603 3.385870 0.448799 -9.387681 5.176043 -10.589907 -1.667587 0.850905 21.438841 0.876869 6.259859 3.122817 1.150900 -0.000001 -66.719900 9.759998 -0.116369 0.641070 12.460948 -0.053781 -40.139328 0.964182 -2.928697 45.376408 -1.997202 -6.913716 -12.543474 0.310900 0.000000 -38.622200 0.029123 -3.846341 -1.030024 -0.051007 -3.832972 -3.175139 -5.396428 -3.752707 -0.977690 9.070880 -15.676843 -8.877401 -3.031110 -0.220686 -0.302742 0.000000 0.000000 0.000000 6.172419 7.317558 -0.842084 -74.618014 4.394160 30.933510 -179.286979 -65.281697 179.965860 3.971237 -5.285488 -0.207950 -0.073804 0.722206 -0.000000 0.000000 0.000000 0.000000 0.000000 0.000000 0.000000 7.675086 -10.775810 -0.984113 71.713939 -7.770670 36.276322 179.538777 72.012580 179.987840 -1.113036 8.592277 -0.085315 -0.029155 -0.610583 0.000000 0.000000 0.000000 0.000000 0.000000 0.000000 0.000000 
4.840588 17.471011 1.421225 7.371330 59.754201 22.845224 -10.470431 3.560825 0.301663 -8.910095 6.369994 -9.695907 -1.574857 0.915262 20.300903 0.781217 5.555610 6.900475 1.346301 -0.000000 -68.528100 9.557109 -0.279386 0.790281 13.195813 0.003959 -39.233392 1.321643 -2.607609 40.894337 -1.752842 -5.799107 -11.160069 0.073300 0.000001 -40.173000 0.372503 -3.847816 -1.060585 0.041141 -3.856592 -3.176353 -5.281940 -3.778528 -0.906578 8.865649 -15.934162 -8.957567 -2.953293 -0.213917 -0.320624 0.000000 0.000000 0.000000 6.296767 7.476849 -0.873608 -74.656063 4.340924 31.322785 -179.276643 -64.861164 179.967706 3.727701 -5.241729 -0.193451 -0.065444 0.725016 -0.000000 0.000000 0.000000 0.000000 0.000000 0.000000 0.000000 7.138204 -11.038264 -1.037660 71.728918 -8.233913 36.150084 179.559411 71.879711 179.987275 -1.155913 8.492951 -0.087648 -0.030768 -0.603506 0.000000 0.000000 0.000000 0.000000 0.000000 0.000000 0.000000 
5.036960 17.572980 1.535416 6.922227 59.260761 22.374341 -10.619541 3.714026 0.145267 -8.450373 7.523524 -9.007051 -1.485650 0.988969 19.502762 0.729346 4.818065 10.456248 1.399000 0.000000 -69.396800 9.365277 -0.430824 0.980720 13.847961 0.200861 -38.261882 1.675094 -2.251379 36.361718 -1.511377 -4.768071 -9.790889 -0.116200 -0.000000 -41.593200 0.700281 -3.843658 -1.113092 0.131766 -3.873914 -3.181529 -5.161021 -3.799042 -0.834155 8.640464 -16.196887 -9.041827 -2.864102 -0.206134 -0.339829 0.000000 0.000000 0.000000 6.447294 7.622311 -0.904913 -74.745297 4.305439 31.695015 -179.272615 -64.490474 179.969758 3.455112 -5.190305 -0.177280 -0.054950 0.726786 -0.000000 0.000000 0.000000 0.000000 0.000000 0.000000 0.000000 6.529829 -11.303094 -1.084197 71.824335 -8.680471 35.993060 179.582522 71.763412 179.986717 -1.175296 8.464402 -0.088686 -0.033492 -0.598249 0.000000 0.000000 0.000000 0.000000 0.000000 0.000000 0.000000 
5.231738 17.665368 1.650602 6.560095 58.798352 22.020087 -10.751109 3.840773 -0.014696 -8.041513 8.579163 -8.505227 -1.400217 1.064664 19.052956 0.720300 4.126003 13.669481 1.342400 0.000000 -69.303400 9.191963 -0.558012 1.211366 14.378657 0.538331 -37.265048 2.011746 -1.863094 31.870314 -1.285438 -3.871000 -8.475428 -0.261500 -0.000000 -42.893500 0.993986 -3.837719 -1.188667 0.217471 -3.887646 -3.190513 -5.034844 -3.816896 -0.761504 8.402913 -16.464918 -9.132018 -2.765474 -0.197458 -0.360895 0.000000 0.000000 0.000000 6.629563 7.748205 -0.936147 -74.884700 4.293477 32.039807 -179.274958 -64.153985 179.971965 3.158059 -5.134308 -0.159936 -0.042426 0.727730 -0.000000 0.000000 0.000000 0.000000 0.000000 0.000000 0.000000 5.865552 -11.569950 -1.121863 71.985016 -9.107780 35.815154 179.606934 71.648852 179.986174 -1.167500 8.515658 -0.088228 -0.037344 -0.595288 0.000000 0.000000 0.000000 0.000000 0.000000 0.000000 0.000000 
